<svg width="35" height="27" viewBox="0 0 35 27" fill="none" xmlns="http://www.w3.org/2000/svg">
<g clip-path="url(#clip0_501_2)">
<path d="M33 0.5H2C1.17157 0.5 0.5 1.17157 0.5 2V25C0.5 25.8284 1.17157 26.5 2 26.5H33C33.8284 26.5 34.5 25.8284 34.5 25V2C34.5 1.17157 33.8284 0.5 33 0.5Z" stroke="black" stroke-opacity="0.26"/>
<path d="M27 16.75L27 20.25C27 21.2166 26.2166 22 25.25 22L21.75 22C20.7834 22 20 21.2166 20 20.25L20 16.75C20 15.7834 20.7834 15 21.75 15L25.25 15C26.2166 15 27 15.7834 27 16.75Z" fill="#323232"/>
<path d="M15 6.75L15 10.25C15 11.2166 14.2166 12 13.25 12L9.75 12C8.7834 12 8 11.2166 8 10.25L8 6.75C8 5.7834 8.7834 5 9.75 5L13.25 5C14.2166 5 15 5.7834 15 6.75Z" fill="#323232"/>
<path d="M26.7363 9.76366C26.4157 9.44304 25.9067 9.41104 25.5484 9.68913L25.4637 9.76366L24.3 10.9273L24.3 7.69999C24.3 6.27018 23.1856 5.08823 21.7586 5.00456L21.6 4.99999L18.9 4.99999C18.4029 5.00069 18.0004 5.40393 18.0011 5.90104C18.0014 6.35667 18.3424 6.73987 18.7949 6.79366L18.9004 6.79999L21.6004 6.79999C22.0567 6.79999 22.4406 7.14171 22.494 7.59452L22.5004 7.69999L22.5004 10.9266L21.3367 9.76366C20.9848 9.4128 20.4149 9.41386 20.064 9.76577C19.7448 10.086 19.7128 10.5937 19.9895 10.9516L20.064 11.0363L22.764 13.7363C22.9679 13.9448 23.2615 14.0394 23.5487 13.9884L23.6802 13.956L23.7737 13.9202C23.8873 13.8682 23.9896 13.7943 24.0743 13.6998L26.7363 11.0363C27.0876 10.6848 27.0876 10.1152 26.7363 9.76366Z" fill="#323232"/>
<path d="M17 21.1C17 20.6437 16.6583 20.2598 16.2055 20.2063L16.1 20.2L13.4 20.2C12.9437 20.2 12.5598 19.8583 12.5063 19.4055L12.5 19.3L12.5 16.0734L13.6637 17.2363C13.9843 17.557 14.4934 17.5889 14.8516 17.3109L14.9363 17.2363C15.257 16.9157 15.2889 16.4066 15.0109 16.0484L14.9363 15.9637L12.2363 13.2637C12.0324 13.0552 11.7389 12.9606 11.4516 13.0116L11.3202 13.0439L11.2266 13.0798C11.1124 13.1318 11.0101 13.2071 10.9261 13.3002L8.26367 15.9637C7.91281 16.3156 7.91387 16.8855 8.26578 17.2363C8.58605 17.5555 9.09371 17.5875 9.4516 17.3109L9.53633 17.2363L10.7 16.0744L10.7 19.3C10.7 20.7298 11.8145 21.9118 13.2414 21.9954L13.4 22L16.1 22C16.5971 22 17 21.5971 17 21.1Z" fill="#323232"/>
</g>
<defs>
<clipPath id="clip0_501_2">
<rect width="35" height="27" fill="white"/>
</clipPath>
</defs>
</svg>
